<svg xmlns="http://www.w3.org/2000/svg" width="34" height="34" viewBox="0 0 34 34">
  <g id="Group_1723" data-name="Group 1723" transform="translate(-253 -78)">
    <g id="Group_1719" data-name="Group 1719" transform="translate(253 78)">
      <path id="Path_1631" data-name="Path 1631" d="M17,0A17,17,0,1,1,0,17,17,17,0,0,1,17,0Z" transform="translate(0 0)" fill="#90abe7" opacity="0.7"/>
      <path id="Icon_awesome-hospital" data-name="Icon awesome-hospital" d="M18.046,17.341v.7H0v-.7a.456.456,0,0,1,.483-.423h.806V4.23a.912.912,0,0,1,.967-.846H5.8V.846A.912.912,0,0,1,6.767,0h4.512a.912.912,0,0,1,.967.846V3.384H15.79a.912.912,0,0,1,.967.846V16.918h.806A.456.456,0,0,1,18.046,17.341ZM12.407,6.767H10.8a.456.456,0,0,0-.483.423V8.6a.456.456,0,0,0,.483.423h1.611A.456.456,0,0,0,12.89,8.6V7.19A.456.456,0,0,0,12.407,6.767ZM5.639,9.023H7.251A.456.456,0,0,0,7.734,8.6V7.19a.456.456,0,0,0-.483-.423H5.639a.456.456,0,0,0-.483.423V8.6A.456.456,0,0,0,5.639,9.023Zm4.189,4.512H8.217a.456.456,0,0,0-.483.423v2.961h2.578V13.958A.456.456,0,0,0,9.829,13.535Zm2.578-3.384H10.8a.456.456,0,0,0-.483.423v1.41a.456.456,0,0,0,.483.423h1.611a.456.456,0,0,0,.483-.423v-1.41A.456.456,0,0,0,12.407,10.151Zm-4.673.423a.456.456,0,0,0-.483-.423H5.639a.456.456,0,0,0-.483.423v1.41a.456.456,0,0,0,.483.423H7.251a.456.456,0,0,0,.483-.423Zm-.4-7.19H8.379V4.3a.228.228,0,0,0,.242.211h.806A.228.228,0,0,0,9.668,4.3V3.384h1.047a.228.228,0,0,0,.242-.211v-.7a.228.228,0,0,0-.242-.211H9.668V1.339a.228.228,0,0,0-.242-.211H8.62a.228.228,0,0,0-.242.211v.916H7.331a.228.228,0,0,0-.242.211v.7A.228.228,0,0,0,7.331,3.384Z" transform="translate(7.846 7.846)" fill="#3960b7"/>
    </g>
  </g>
</svg>
