<svg xmlns="http://www.w3.org/2000/svg" width="34" height="34" viewBox="0 0 34 34">
  <g id="Group_1655" data-name="Group 1655" transform="translate(-295 -462)">
    <circle id="Ellipse_326" data-name="Ellipse 326" cx="17" cy="17" r="17" transform="translate(295 462)" fill="#f1fc52" opacity="0.7"/>
    <path id="Icon_awesome-microscope" data-name="Icon awesome-microscope" d="M5.625,11.25h.422v.563a.562.562,0,0,0,.563.563H8.016a.562.562,0,0,0,.563-.562V11.25H9a1.125,1.125,0,0,0,1.125-1.125V2.25A1.125,1.125,0,0,0,9,1.125V.563A.562.562,0,0,0,8.438,0H6.188a.562.562,0,0,0-.562.563v.563A1.125,1.125,0,0,0,4.5,2.25v7.875A1.125,1.125,0,0,0,5.625,11.25Zm10.687,4.5h-.045A6.739,6.739,0,0,0,11.25,4.5V6.75a4.5,4.5,0,0,1,0,9H1.688A1.687,1.687,0,0,0,0,17.438.562.562,0,0,0,.563,18H17.438A.562.562,0,0,0,18,17.438,1.687,1.687,0,0,0,16.313,15.75ZM3.656,14.625h7.313a.281.281,0,0,0,.281-.281v-.562a.281.281,0,0,0-.281-.281H3.656a.281.281,0,0,0-.281.281v.563A.281.281,0,0,0,3.656,14.625Z" transform="translate(303 470)" fill="#c2cc2e"/>
  </g>
</svg>
