<svg xmlns="http://www.w3.org/2000/svg" width="34" height="34" viewBox="0 0 34 34">
  <g id="Group_1656" data-name="Group 1656" transform="translate(-295 -387)">
    <circle id="Ellipse_325" data-name="Ellipse 325" cx="17" cy="17" r="17" transform="translate(295 387)" fill="#ffcd77" opacity="0.7"/>
    <path id="Icon_awesome-syringe" data-name="Icon awesome-syringe" d="M7.082,6.145,9.04,8.107a.282.282,0,0,1,0,.4l-.4.4a.282.282,0,0,1-.4,0L6.288,6.94,4.7,8.532l1.962,1.962a.282.282,0,0,1,0,.4l-.4.4a.282.282,0,0,1-.4,0L3.9,9.323l-.928.928a2.81,2.81,0,0,0-.809,2.3l.25,2.236L.08,17.122a.282.282,0,0,0,0,.4l.4.4a.282.282,0,0,0,.4,0l2.331-2.331,2.236.25a2.8,2.8,0,0,0,2.3-.809l6.394-6.4L9.364,3.86,7.082,6.145Zm10.834-3.28L15.132.08a.282.282,0,0,0-.4,0l-.4.4a.282.282,0,0,0,0,.4l.995,1L13.74,3.462l-1.99-1.99-.6-.6a.282.282,0,0,0-.4,0L9.564,2.067a.282.282,0,0,0,0,.4l.6.6,4.77,4.778.6.6a.282.282,0,0,0,.4,0l1.192-1.2a.282.282,0,0,0,0-.4L14.535,4.26l1.592-1.593.995,1a.282.282,0,0,0,.4,0l.4-.4a.287.287,0,0,0,0-.4Z" transform="translate(303.002 395.002)" fill="#d49a37"/>
  </g>
</svg>
