<svg xmlns="http://www.w3.org/2000/svg" width="34" height="34" viewBox="0 0 34 34">
  <g id="Group_1685" data-name="Group 1685" transform="translate(-295 -387)">
    <circle id="Ellipse_325" data-name="Ellipse 325" cx="17" cy="17" r="17" transform="translate(295 387)" fill="#fd5757" opacity="0.7"/>
    <path id="virus-solid" d="M17,7.99h-.758a2,2,0,0,1-1.414-3.414l.535-.536a1,1,0,0,0-1.413-1.413l-.536.535A2,2,0,0,1,10,1.748V.99a1,1,0,0,0-2,0v.758A2,2,0,0,1,4.586,3.163L4.05,2.627A1,1,0,0,0,2.637,4.04l.536.536A2,2,0,0,1,1.759,7.99H1a1,1,0,1,0,0,2h.758a2,2,0,0,1,1.414,3.415l-.535.536A1,1,0,0,0,4.05,15.354l.536-.536A2,2,0,0,1,8,16.232v.757a1,1,0,0,0,2,0v-.757a2,2,0,0,1,3.414-1.414l.536.535a1,1,0,0,0,1.413-1.413l-.536-.536a2,2,0,0,1,1.414-3.415H17a1,1,0,1,0,0-2ZM7.875,9.553A1.688,1.688,0,1,1,9.563,7.866,1.688,1.688,0,0,1,7.875,9.553Zm2.813,1.969a.844.844,0,1,1,.844-.844A.844.844,0,0,1,10.688,11.522Z" transform="translate(303.187 394.659)" fill="#e15a5a"/>
  </g>
</svg>
