<svg xmlns="http://www.w3.org/2000/svg" width="34" height="34" viewBox="0 0 34 34">
  <g id="Group_1726" data-name="Group 1726" transform="translate(-1272 -835.026)">
    <path id="Path_1631" data-name="Path 1631" d="M17,0A17,17,0,1,1,0,17,17,17,0,0,1,17,0Z" transform="translate(1272 835.026)" fill="#9afd9e" opacity="0.7"/>
    <path id="Icon_awesome-heart" data-name="Icon awesome-heart" d="M16.368,3.332a4.842,4.842,0,0,0-6.607.482l-.7.719-.7-.719a4.842,4.842,0,0,0-6.607-.482,5.084,5.084,0,0,0-.351,7.361L8.26,17.768a1.11,1.11,0,0,0,1.6,0l6.851-7.074a5.081,5.081,0,0,0-.347-7.361Z" transform="translate(1279.847 841.898)" fill="#5bd160"/>
  </g>
</svg>
