<svg xmlns="http://www.w3.org/2000/svg" width="34" height="34" viewBox="0 0 34 34">
  <g id="Group_1736" data-name="Group 1736" transform="translate(-1329.974 -909)">
    <g id="Group_1726" data-name="Group 1726" transform="translate(57.974 73.974)">
      <path id="Path_1631" data-name="Path 1631" d="M17,0A17,17,0,1,1,0,17,17,17,0,0,1,17,0Z" transform="translate(1272 835.026)" fill="#9ad5fd" opacity="0.7"/>
    </g>
    <path id="Icon_awesome-check" data-name="Icon awesome-check" d="M7.18,20.032.31,13.161a1.057,1.057,0,0,1,0-1.495L1.8,10.172a1.057,1.057,0,0,1,1.495,0L7.927,14.8,17.84,4.887a1.057,1.057,0,0,1,1.495,0L20.83,6.382a1.057,1.057,0,0,1,0,1.495L8.675,20.032A1.057,1.057,0,0,1,7.18,20.032Z" transform="translate(1336.43 913.964)" fill="#3caec0"/>
  </g>
</svg>
